<svg width="175" height="176" viewBox="0 0 175 176" fill="none" xmlns="http://www.w3.org/2000/svg">
<path fill-rule="evenodd" clip-rule="evenodd" d="M0 88C0 39.3989 39.1781 0 87.5 0C135.825 0 175 39.4019 175 88C175 136.601 135.822 176 87.5 176C39.1751 176 0 136.598 0 88ZM9.72222 88C9.72222 44.7991 44.5351 9.77778 87.5 9.77778C130.455 9.77778 165.278 44.7896 165.278 88C165.278 131.201 130.465 166.222 87.5 166.222C44.5445 166.222 9.72222 131.21 9.72222 88Z" fill="white"/>
<path fill-rule="evenodd" clip-rule="evenodd" d="M116.314 114.852V59.0211H103.508V81.4287H71.492V59.0211H58.6857V106.448C62.6295 106.325 66.8898 106.428 71.492 106.816L71.492 94.233H103.508V112.826C108.041 113.785 112.305 114.447 116.314 114.852Z" fill="white"/>
<path fill-rule="evenodd" clip-rule="evenodd" d="M30.1362 119.712C42.7873 114.007 63.5143 109.314 97.5562 118.231C118.388 123.688 133.947 122.98 145.393 119.712C145.393 120.32 129.03 154.731 88.0651 154.731C47.0997 154.731 30.1362 119.584 30.1362 119.712Z" fill="#31AAB7"/>
</svg>
